<svg xmlns="http://www.w3.org/2000/svg" viewBox="0 0 1848.91 400.15"><defs><style>.cls-1{fill:#100c7a;}.cls-2{fill:#ffb400;}.cls-3{fill:#2962ff;}</style></defs><title>Asset 13jpg</title><g id="Layer_2" data-name="Layer 2"><g id="Layer_1-2" data-name="Layer 1"><path class="cls-1" d="M652.84,390.59a62.37,62.37,0,0,1-86-19.65l-9.61-15.31-110.41-176L394.12,95.46a62.3,62.3,0,0,1,19.7-86c1.32-.78,2.59-1.56,3.91-2.28s2.7-1.32,4-1.92c1.14-.55,2.34-1,3.49-1.45a15.2,15.2,0,0,1,2.16-.72,1,1,0,0,1,.54-.18c1.08-.36,2.16-.66,3.24-1l.72-.18,3.19-.72c.18,0,.36-.06.48-.06a34.88,34.88,0,0,1,3.48-.54,60.35,60.35,0,0,1,7.61-.43c.66,0,1.31,0,2,0a60.86,60.86,0,0,1,6.73.56c1,.14,2,.34,3.06.53,1.26.24,2.51.53,3.77.85a62.35,62.35,0,0,1,7.14,2.28c.33.13.67.24,1,.38A61.62,61.62,0,0,1,499.78,29.2L672.55,304.63a62.31,62.31,0,0,1-19.71,86"/><path class="cls-2" d="M268.23,9.55h0a62.38,62.38,0,0,0-86,19.7L9.54,304.64a62.37,62.37,0,0,0,105.67,66.27L287.92,95.53a62.37,62.37,0,0,0-19.69-86"/><path class="cls-3" d="M509.15,62.42a61.87,61.87,0,0,1-9.55,33.1l-52.74,84.1-110.35,176-9.61,15.31a62.37,62.37,0,0,1-105.66-66.31L393.94,29.26c.66-1.05,1.43-2,2.14-3l.4-.56a62,62,0,0,1,4.45-5.42l.6-.68a61.64,61.64,0,0,1,5.28-5c.16-.13.3-.28.47-.41a59.6,59.6,0,0,1,6.54-4.73c1.32-.78,2.59-1.56,3.91-2.28s2.7-1.32,4-1.92c1.14-.54,2.34-1,3.49-1.45a15.2,15.2,0,0,1,2.16-.72,1,1,0,0,1,.54-.18c1.08-.36,2.16-.66,3.24-1l.72-.18,3.19-.72c.18,0,.36-.06.48-.06a34.88,34.88,0,0,1,3.48-.54,62.42,62.42,0,0,1,70.1,61.93"/><path class="cls-2" d="M483.41,354H410.36a14.39,14.39,0,0,1-12.19-22l36.51-58.24a14.4,14.4,0,0,1,24.39,0L495.61,332a14.4,14.4,0,0,1-12.2,22"/><path class="cls-1" d="M871.11,71.1,825,140,780.26,71.1a17.52,17.52,0,0,0-7.17-6c-8.37-4.08-16.39-2.3-22,3.21a17.93,17.93,0,0,0-5.62,13.11V211a18.68,18.68,0,0,0,4.84,13c6.69,7.33,19.18,7.15,25.74,0a18.68,18.68,0,0,0,4.84-13V135.53l28.33,44.74a23.45,23.45,0,0,0,6.31,5.33,14.15,14.15,0,0,0,8.08,2.25,15.16,15.16,0,0,0,8.95-2.24,23.81,23.81,0,0,0,6.62-5.75l28-42.74V211a18,18,0,0,0,5.34,13.16,18.53,18.53,0,0,0,13.61,5.33A18.06,18.06,0,0,0,904.83,211V81.42A17.57,17.57,0,0,0,899,68c-8.48-7.57-21.08-6.49-27.85,3.14"/><path class="cls-1" d="M1099.14,63.14H999.77a18.93,18.93,0,0,0-12.95,4.7,16.72,16.72,0,0,0-5.54,12.91,17,17,0,0,0,5.48,13,18.62,18.62,0,0,0,13,4.86h30.3V211a17.75,17.75,0,0,0,5.48,13.2,18.88,18.88,0,0,0,13.68,5.29,19.64,19.64,0,0,0,14-5.24,17.57,17.57,0,0,0,5.65-13.25V98.57h30.3a18.88,18.88,0,0,0,12.95-4.7,16.7,16.7,0,0,0,5.54-12.9,17.11,17.11,0,0,0-5.49-13,18.68,18.68,0,0,0-13-4.85"/><path class="cls-1" d="M1149.91,228a16.72,16.72,0,0,1-17-17V81.64a16.74,16.74,0,0,1,17-17h75a17,17,0,0,1,12,4.6,15.82,15.82,0,0,1,5,12,15,15,0,0,1-5,11.58,17.46,17.46,0,0,1-11.95,4.3h-57.29v31.35h47.22a17,17,0,0,1,12,4.59,16,16,0,0,1,5,12,15,15,0,0,1-5,11.58,17.53,17.53,0,0,1-12,4.3h-47.22v34.7h57.29a16.47,16.47,0,0,1,12.1,4.9,15.67,15.67,0,0,1,4.89,11.43,15.33,15.33,0,0,1-5,11.64,17.16,17.16,0,0,1-12,4.46Z"/><path class="cls-1" d="M1370.69,188.5a20.93,20.93,0,0,0-12.22,2.07,36.81,36.81,0,0,1-10.28,3.56,60.41,60.41,0,0,1-30-1.94,38.86,38.86,0,0,1-14.54-8.86,41.73,41.73,0,0,1-9.71-15.06c-2.38-6.11-3.58-13.49-3.58-22a57.72,57.72,0,0,1,3.18-19.62,42.59,42.59,0,0,1,9.12-15,41.11,41.11,0,0,1,14.51-9.69,56.1,56.1,0,0,1,31.15-2.25,53,53,0,0,1,10.29,3.47,22.53,22.53,0,0,0,11.85,2.24,14.9,14.9,0,0,0,10.76-6.23A18.54,18.54,0,0,0,1385.52,84a16.69,16.69,0,0,0-9.41-12.72,83.43,83.43,0,0,0-18.75-6.89,92.46,92.46,0,0,0-54.4,3.92,82.39,82.39,0,0,0-27.19,17.59,78.66,78.66,0,0,0-17.89,26.81,88.48,88.48,0,0,0-6.29,33.6c0,13.88,2.31,26.32,6.88,36.94a75.3,75.3,0,0,0,19,26.86,82.22,82.22,0,0,0,27.32,16.19,95.93,95.93,0,0,0,32.17,5.41,85.12,85.12,0,0,0,13.54-1.06,99,99,0,0,0,13.07-3.07,82.35,82.35,0,0,0,12.64-5.07,16.68,16.68,0,0,0,9.47-12c1.13-5.41-.29-10.63-4.17-15.51a16.61,16.61,0,0,0-10.85-6.5"/><path class="cls-1" d="M1504.89,68.34a17.43,17.43,0,0,0-5.82,13.3v46.62h-61.68V81.64a17.62,17.62,0,0,0-5.66-13.25,19.3,19.3,0,0,0-26.51,0,17.71,17.71,0,0,0-5.5,13.2V211a18.24,18.24,0,0,0,5.17,13.12c6.6,6.79,18.77,7.47,26.69.18a17.68,17.68,0,0,0,5.81-13.3V163.69h61.68V211a17.58,17.58,0,0,0,5.65,13.25,18.18,18.18,0,0,0,12.85,5.25c5.64,0,10.3-1.8,13.84-5.34a18,18,0,0,0,5.33-13.16V81.64a18.18,18.18,0,0,0-5.18-13.11c-6.63-6.8-18.8-7.45-26.67-.19"/><path class="cls-1" d="M1663.83,68.53a19.14,19.14,0,0,0-4.53,12.89v81a30.25,30.25,0,0,1-16,27.73,31.22,31.22,0,0,1-30.11.05,29.07,29.07,0,0,1-11-10.89,32.8,32.8,0,0,1-4.14-16.89v-81a17.63,17.63,0,0,0-5.66-13.26,19,19,0,0,0-26.28,0,17.73,17.73,0,0,0-5.5,13.21v81c0,13.16,2.88,25,8.55,35.24a62.45,62.45,0,0,0,23.74,24.22c10,5.78,21.73,8.71,34.76,8.71s24.7-2.93,34.65-8.72A62.57,62.57,0,0,0,1686,197.67c5.68-10.24,8.56-22.09,8.56-35.24v-81a18.65,18.65,0,0,0-4.86-13c-6.64-7.29-19.54-7.22-25.82.11"/><path class="cls-1" d="M1842.66,152.33a44.5,44.5,0,0,0-15.55-15s0,0,0,0a34.84,34.84,0,0,0,7.63-8.34,38.22,38.22,0,0,0,5.93-21.11c0-14.44-4-25.62-12-33.26s-19.8-11.42-35.35-11.42h-56.39a18.18,18.18,0,0,0-13.16,5.34,18,18,0,0,0-5.33,13.16V211a18.22,18.22,0,0,0,18.49,18.5h55.72a88.29,88.29,0,0,0,18.22-2,54,54,0,0,0,18.46-7.74,42.41,42.41,0,0,0,14.3-16.38c3.55-6.94,5.34-15.82,5.34-26.38,0-9.85-2.11-18.14-6.25-24.64m-52.75-27.87h-32.75V99.24h32.07c4,0,7.08,1,9.39,3.12,2.14,1.93,3.22,5.42,3.22,10.39,0,3.88-1.11,6.68-3.4,8.57a12.85,12.85,0,0,1-8.53,3.14m-32.75,36.1H1791a48.28,48.28,0,0,1,9.33,1,12.42,12.42,0,0,1,7,4.1c1.82,2,2.78,5.92,2.78,11.3,0,5.93-1.45,10.13-4.45,12.86s-7.4,4.22-13.08,4.22h-35.43Z"/><path class="cls-3" d="M816,270.71a5.28,5.28,0,0,1-3.73-1.38,4.65,4.65,0,0,1-1.52-3.61,4.55,4.55,0,0,1,1.52-3.57,5.42,5.42,0,0,1,3.73-1.32h38.14a5.31,5.31,0,0,1,3.74,1.37,4.62,4.62,0,0,1,1.5,3.61,4.48,4.48,0,0,1-1.5,3.56,5.43,5.43,0,0,1-3.74,1.34ZM835,321a5.36,5.36,0,0,1-3.94-1.5,5,5,0,0,1-1.56-3.74V265.9h11.17v49.82a4.94,4.94,0,0,1-1.58,3.74A5.67,5.67,0,0,1,835,321"/><path class="cls-3" d="M891.65,274.14q6.18,0,9.41,2.67a13.54,13.54,0,0,1,4.42,7.08,37.57,37.57,0,0,1,1.2,9.84v22a5.18,5.18,0,0,1-1.46,3.74,5.3,5.3,0,0,1-7.39,0,5.18,5.18,0,0,1-1.45-3.74v-22a17.9,17.9,0,0,0-.69-5.11A7,7,0,0,0,893.2,285,8.38,8.38,0,0,0,888,283.6a10.78,10.78,0,0,0-5.59,1.37,8.91,8.91,0,0,0-3.48,3.65,11.11,11.11,0,0,0-1.16,5.11v22a5.18,5.18,0,0,1-1.45,3.74,5.3,5.3,0,0,1-7.39,0,5.18,5.18,0,0,1-1.46-3.74V262.63A5.14,5.14,0,0,1,869,258.9a5.28,5.28,0,0,1,7.39,0,5.14,5.14,0,0,1,1.45,3.73v21.31l-1.28-.27a19,19,0,0,1,2.15-3.13,18.58,18.58,0,0,1,7.72-5.5,15,15,0,0,1,5.25-.9"/><path class="cls-3" d="M922.32,269.42a6.82,6.82,0,0,1-4.12-.95,4,4,0,0,1-1.2-3.35v-1.63c0-1.66.44-2.79,1.34-3.39a7.23,7.23,0,0,1,4.07-.91c2,0,3.41.32,4.21.95a4,4,0,0,1,1.2,3.35v1.63c0,1.66-.43,2.8-1.28,3.39a7.46,7.46,0,0,1-4.22.91m5.25,46.3a5.18,5.18,0,0,1-1.46,3.74,5.3,5.3,0,0,1-7.39,0,5.15,5.15,0,0,1-1.47-3.74V280.24a5.11,5.11,0,0,1,1.47-3.73,5.3,5.3,0,0,1,7.39,0,5.14,5.14,0,0,1,1.46,3.73Z"/><path class="cls-3" d="M962.7,274.14q6.36,0,9.67,2.67a13.48,13.48,0,0,1,4.54,7.08,35.9,35.9,0,0,1,1.25,9.84v22a5.14,5.14,0,0,1-1.46,3.74,5.29,5.29,0,0,1-7.38,0,5.18,5.18,0,0,1-1.46-3.74v-22a16.55,16.55,0,0,0-.73-5.11A7.11,7.11,0,0,0,964.5,285a9.07,9.07,0,0,0-5.41-1.37A11.3,11.3,0,0,0,953.3,285a9.34,9.34,0,0,0-3.62,3.65,10.56,10.56,0,0,0-1.24,5.11v22a5.18,5.18,0,0,1-1.46,3.74,5.3,5.3,0,0,1-7.39,0,5.18,5.18,0,0,1-1.45-3.74V280.24a5.14,5.14,0,0,1,1.45-3.73,5.3,5.3,0,0,1,7.39,0,5.14,5.14,0,0,1,1.46,3.73v3.7l-1.28-.27a17.07,17.07,0,0,1,2.23-3.13,21.7,21.7,0,0,1,3.43-3.14,17.76,17.76,0,0,1,4.47-2.36,15.79,15.79,0,0,1,5.41-.9"/><path class="cls-3" d="M995.33,321a4.94,4.94,0,0,1-3.69-1.5,5.18,5.18,0,0,1-1.45-3.74V262.63a5.14,5.14,0,0,1,1.45-3.73,5.28,5.28,0,0,1,7.39,0,5.14,5.14,0,0,1,1.46,3.73v53.09a5.18,5.18,0,0,1-1.46,3.74,4.94,4.94,0,0,1-3.7,1.5M1022.65,275a4.5,4.5,0,0,1,3.44,1.62,4.83,4.83,0,0,1,1.46,3.18,5.11,5.11,0,0,1-2.06,3.86l-25.86,23.81-.43-11.86,19.67-19a5.25,5.25,0,0,1,3.78-1.62m1.29,45.86a4.87,4.87,0,0,1-3.77-1.71l-15.9-16.84,7.81-7.22,15.47,16.84a5.53,5.53,0,0,1,1.64,3.86,4.5,4.5,0,0,1-1.77,3.66,5.57,5.57,0,0,1-3.48,1.41"/><path class="cls-2" d="M1042.76,320.87a4.65,4.65,0,0,1-5.16-5.15v-1.46a5.11,5.11,0,0,1,1.34-3.82,5.19,5.19,0,0,1,3.82-1.34h1.11a5.18,5.18,0,0,1,3.82,1.34,5.11,5.11,0,0,1,1.34,3.82v1.46a4.65,4.65,0,0,1-5.16,5.15Z"/><path class="cls-3" d="M1095.25,315.72a4.86,4.86,0,0,1-1.64,3.74,5.36,5.36,0,0,1-3.77,1.5,5.05,5.05,0,0,1-5.32-5.24V266.06a5,5,0,0,1,1.54-3.73,5.38,5.38,0,0,1,3.94-1.5,5.14,5.14,0,0,1,3.66,1.5,4.93,4.93,0,0,1,1.59,3.73Z"/><path class="cls-3" d="M1131.84,274.14q6.36,0,9.66,2.67a13.49,13.49,0,0,1,4.55,7.08,35.9,35.9,0,0,1,1.25,9.84v22a5.18,5.18,0,0,1-1.46,3.74,5.29,5.29,0,0,1-7.38,0,5.14,5.14,0,0,1-1.46-3.74v-22a16.86,16.86,0,0,0-.73-5.11,7.11,7.11,0,0,0-2.63-3.65,9.07,9.07,0,0,0-5.41-1.37,11.34,11.34,0,0,0-5.8,1.37,9.31,9.31,0,0,0-3.61,3.65,10.56,10.56,0,0,0-1.24,5.11v22a5.18,5.18,0,0,1-1.46,3.74,5.3,5.3,0,0,1-7.39,0,5.18,5.18,0,0,1-1.46-3.74V280.24a5.14,5.14,0,0,1,1.46-3.73,5.3,5.3,0,0,1,7.39,0,5.14,5.14,0,0,1,1.46,3.73v3.7l-1.28-.27a16.51,16.51,0,0,1,2.22-3.13,21.79,21.79,0,0,1,3.44-3.14,17.59,17.59,0,0,1,4.47-2.36,15.79,15.79,0,0,1,5.41-.9"/><path class="cls-3" d="M1183,274.14q6.36,0,9.66,2.67a13.49,13.49,0,0,1,4.55,7.08,35.9,35.9,0,0,1,1.25,9.84v22a5.18,5.18,0,0,1-1.46,3.74,5.29,5.29,0,0,1-7.38,0,5.14,5.14,0,0,1-1.46-3.74v-22a16.55,16.55,0,0,0-.73-5.11,7.11,7.11,0,0,0-2.63-3.65,9.07,9.07,0,0,0-5.41-1.37,11.37,11.37,0,0,0-5.8,1.37,9.31,9.31,0,0,0-3.61,3.65,10.56,10.56,0,0,0-1.24,5.11v22a5.18,5.18,0,0,1-1.46,3.74,5.3,5.3,0,0,1-7.39,0,5.18,5.18,0,0,1-1.46-3.74V280.24a5.14,5.14,0,0,1,1.46-3.73,5.3,5.3,0,0,1,7.39,0,5.14,5.14,0,0,1,1.46,3.73v3.7l-1.28-.27a16.16,16.16,0,0,1,2.23-3.13,21.7,21.7,0,0,1,3.43-3.14,17.59,17.59,0,0,1,4.47-2.36,15.79,15.79,0,0,1,5.41-.9"/><path class="cls-3" d="M1253.83,298a24.26,24.26,0,0,1-3.13,12.41,22.57,22.57,0,0,1-8.43,8.37,24.67,24.67,0,0,1-23.62,0,22.54,22.54,0,0,1-8.42-8.37,26.11,26.11,0,0,1,0-24.83,22.9,22.9,0,0,1,8.42-8.42,24.39,24.39,0,0,1,23.62,0,22.92,22.92,0,0,1,8.43,8.42,24.25,24.25,0,0,1,3.13,12.42m-10.31,0a15.67,15.67,0,0,0-1.76-7.61,13.2,13.2,0,0,0-4.72-5,12.91,12.91,0,0,0-13.15,0,13.15,13.15,0,0,0-4.73,5,15.67,15.67,0,0,0-1.76,7.61,15.46,15.46,0,0,0,1.76,7.51,13.11,13.11,0,0,0,4.73,5,12.91,12.91,0,0,0,13.15,0,13.16,13.16,0,0,0,4.72-5,15.46,15.46,0,0,0,1.76-7.51"/><path class="cls-3" d="M1264.06,275a5.74,5.74,0,0,1,3,.81,4.92,4.92,0,0,1,2,2.44l12.64,28.87-1.89.86,12.88-29.64c1-2.28,2.5-3.38,4.55-3.27a4.72,4.72,0,0,1,3.48,1.34,4.44,4.44,0,0,1,1.34,3.31,4.68,4.68,0,0,1-.21,1.28,13.53,13.53,0,0,1-.48,1.29l-16.06,35.39A4.9,4.9,0,0,1,1281,321a4.7,4.7,0,0,1-3.13-.59,5.42,5.42,0,0,1-2.28-2.68l-16-35.39c-.12-.28-.24-.66-.38-1.11a5.34,5.34,0,0,1-.22-1.64,4.52,4.52,0,0,1,1.38-3,4.71,4.71,0,0,1,3.69-1.5"/><path class="cls-3" d="M1347.3,274.14a5,5,0,0,1,3.69,1.46,5.12,5.12,0,0,1,1.46,3.78v36.34a5.18,5.18,0,0,1-1.46,3.74,5.3,5.3,0,0,1-7.39,0,5.18,5.18,0,0,1-1.46-3.74v-4.21l1.89.77a4.84,4.84,0,0,1-1.2,2.71,16.16,16.16,0,0,1-3.27,3.13,19.78,19.78,0,0,1-4.85,2.63,16.86,16.86,0,0,1-6.06,1.07,19.54,19.54,0,0,1-10.73-3.05,21.42,21.42,0,0,1-7.61-8.42,28.82,28.82,0,0,1,0-24.74,21.74,21.74,0,0,1,7.52-8.42,19,19,0,0,1,10.48-3.05,20.08,20.08,0,0,1,12.15,4,16.43,16.43,0,0,1,3.53,3.48,5.5,5.5,0,0,1,1.24,3l-3.09,1.11v-6.27a5.16,5.16,0,0,1,1.46-3.73,4.91,4.91,0,0,1,3.7-1.51m-17.36,38.23a11.66,11.66,0,0,0,6.62-1.89,12.86,12.86,0,0,0,4.42-5.15,16.46,16.46,0,0,0,1.59-7.3,16.67,16.67,0,0,0-1.59-7.39,12.89,12.89,0,0,0-4.42-5.16,11.73,11.73,0,0,0-6.62-1.88,11.52,11.52,0,0,0-6.52,1.88,12.76,12.76,0,0,0-4.43,5.16,16.67,16.67,0,0,0-1.59,7.39,16.46,16.46,0,0,0,1.59,7.3,12.73,12.73,0,0,0,4.43,5.15,11.45,11.45,0,0,0,6.52,1.89"/><path class="cls-3" d="M1364.13,275.86h20.36a4.7,4.7,0,0,1,4.81,4.81,4.46,4.46,0,0,1-1.37,3.31,4.74,4.74,0,0,1-3.44,1.33h-20.36a4.68,4.68,0,0,1-4.81-4.81,4.44,4.44,0,0,1,1.37-3.31,4.79,4.79,0,0,1,3.44-1.33m9.2-10.74a4.8,4.8,0,0,1,3.65,1.5,5.29,5.29,0,0,1,1.41,3.74v38.23a3.72,3.72,0,0,0,.48,2,2.79,2.79,0,0,0,1.28,1.12,4.54,4.54,0,0,0,1.77.34,4.49,4.49,0,0,0,1.88-.39,5,5,0,0,1,2-.38,2.87,2.87,0,0,1,2.19,1.11,4.5,4.5,0,0,1,1,3.09,4.55,4.55,0,0,1-2.62,4,11,11,0,0,1-5.63,1.54,29.75,29.75,0,0,1-4-.3,10.77,10.77,0,0,1-4.11-1.45,9,9,0,0,1-3.23-3.57,14.13,14.13,0,0,1-1.29-6.61V270.36a5.13,5.13,0,0,1,5.25-5.24"/><path class="cls-3" d="M1419.55,321.82a25.28,25.28,0,0,1-12.67-3,21.17,21.17,0,0,1-8.25-8.3,24.18,24.18,0,0,1-2.88-11.86,26,26,0,0,1,3.14-13.18,22.24,22.24,0,0,1,8.2-8.38,21.24,21.24,0,0,1,10.74-2.91,19.64,19.64,0,0,1,8.3,1.79,22.77,22.77,0,0,1,6.91,4.95,24.2,24.2,0,0,1,4.77,7.26,22.11,22.11,0,0,1,1.76,8.76,4.41,4.41,0,0,1-1.64,3.35,5.45,5.45,0,0,1-3.6,1.29h-32.82l-2.58-8.59h31.54l-1.9,1.71v-2.32a7.81,7.81,0,0,0-1.76-4.46,11.37,11.37,0,0,0-4-3.13,11.18,11.18,0,0,0-5-1.16,16.21,16.21,0,0,0-4.81.68,9,9,0,0,0-3.86,2.32,11.14,11.14,0,0,0-2.58,4.38,21.49,21.49,0,0,0-.95,7,14.92,14.92,0,0,0,1.94,7.86,13.23,13.23,0,0,0,11.47,6.57,20.11,20.11,0,0,0,5.07-.52,11.19,11.19,0,0,0,3-1.24c.78-.49,1.47-.9,2.11-1.24a6.49,6.49,0,0,1,2.92-.78,4.34,4.34,0,0,1,4.38,4.3,5.35,5.35,0,0,1-2.41,4.21,19.74,19.74,0,0,1-6.27,3.3,24.8,24.8,0,0,1-8.33,1.42"/><path class="cls-2" d="M1452.7,320.87a4.63,4.63,0,0,1-5.15-5.15v-1.46a5.15,5.15,0,0,1,1.33-3.82,5.22,5.22,0,0,1,3.82-1.34h1.12a4.67,4.67,0,0,1,5.16,5.16v1.46a4.65,4.65,0,0,1-5.16,5.15Z"/><path class="cls-3" d="M1520.24,260.83a24.91,24.91,0,0,1,11,2.32,22.94,22.94,0,0,1,8.13,6.48,29.07,29.07,0,0,1,5,9.63A39.28,39.28,0,0,1,1546,290.9a37.14,37.14,0,0,1-3,15.16,25.48,25.48,0,0,1-8.71,10.86,23.66,23.66,0,0,1-14,4H1499.7a5.14,5.14,0,0,1-5.24-5.24V266.06a5.14,5.14,0,0,1,5.24-5.23Zm-.86,50.25a13.56,13.56,0,0,0,8.84-2.79,15.91,15.91,0,0,0,5-7.39,30.35,30.35,0,0,0,1.59-10,32.47,32.47,0,0,0-.89-7.69,20.37,20.37,0,0,0-2.79-6.45,13.45,13.45,0,0,0-11.77-6.05h-15l.86-.77V312l-.52-.95Z"/><path class="cls-3" d="M1559.48,269.42a6.82,6.82,0,0,1-4.12-.95,4,4,0,0,1-1.2-3.35v-1.63c0-1.66.44-2.79,1.33-3.39a7.27,7.27,0,0,1,4.08-.91c2,0,3.41.32,4.2.95a4,4,0,0,1,1.21,3.35v1.63c0,1.66-.43,2.8-1.28,3.39a7.48,7.48,0,0,1-4.22.91m5.24,46.3a5.18,5.18,0,0,1-1.45,3.74,4.94,4.94,0,0,1-3.7,1.5,4.88,4.88,0,0,1-3.69-1.5,5.15,5.15,0,0,1-1.47-3.74V280.24a5.11,5.11,0,0,1,1.47-3.73,4.88,4.88,0,0,1,3.69-1.5,4.94,4.94,0,0,1,3.7,1.5,5.14,5.14,0,0,1,1.45,3.73Z"/><path class="cls-3" d="M1572.63,313.83a4.73,4.73,0,0,1-.77-3.09,4.1,4.1,0,0,1,2.23-3.26,4.7,4.7,0,0,1,2.91-.74,5,5,0,0,1,3,1.59,19.5,19.5,0,0,0,5.23,3.86,15.27,15.27,0,0,0,6.88,1.38,21.76,21.76,0,0,0,2.83-.38,5.38,5.38,0,0,0,2.7-1.38,4.28,4.28,0,0,0,1.16-3.3,3.77,3.77,0,0,0-1.28-3,10.93,10.93,0,0,0-3.4-1.9c-1.4-.5-3-1-4.68-1.45s-3.59-1.09-5.46-1.71a23,23,0,0,1-5.11-2.46,11.77,11.77,0,0,1-3.78-4,12.31,12.31,0,0,1-1.45-6.28,11.25,11.25,0,0,1,2.4-7.29,15.56,15.56,0,0,1,6.23-4.64,20.2,20.2,0,0,1,8-1.64,25.93,25.93,0,0,1,5.59.64,22.22,22.22,0,0,1,5.58,2.07,13.8,13.8,0,0,1,4.46,3.73,6.06,6.06,0,0,1,1.12,3.09,3.69,3.69,0,0,1-1.62,3.27,4.16,4.16,0,0,1-3,.91,4.57,4.57,0,0,1-2.83-1.16,10.34,10.34,0,0,0-3.9-3,13.57,13.57,0,0,0-5.63-1.11,14.38,14.38,0,0,0-2.8.3,5.67,5.67,0,0,0-2.62,1.29,4,4,0,0,0-1.11,3.13,4,4,0,0,0,1.28,3.14,9.86,9.86,0,0,0,3.48,1.89c1.47.48,3,1,4.68,1.42s3.47,1,5.24,1.64a20.51,20.51,0,0,1,4.9,2.48,11.79,11.79,0,0,1,3.61,4,12.68,12.68,0,0,1,1.38,6.23,11.3,11.3,0,0,1-2.59,7.47,16.19,16.19,0,0,1-6.43,4.68,20.69,20.69,0,0,1-7.91,1.59,30.58,30.58,0,0,1-10.14-1.76,17.47,17.47,0,0,1-8.41-6.23"/><path class="cls-3" d="M1621.85,321a4.92,4.92,0,0,1-3.7-1.5,5.18,5.18,0,0,1-1.45-3.74V280.24a5.14,5.14,0,0,1,1.45-3.73,5.3,5.3,0,0,1,7.39,0,5.14,5.14,0,0,1,1.46,3.73v8.08l-.6-5.76a13.67,13.67,0,0,1,2.45-3.65,14.79,14.79,0,0,1,3.39-2.67,16.58,16.58,0,0,1,4-1.59,18.43,18.43,0,0,1,4.29-.51,6.62,6.62,0,0,1,4.34,1.46,4.36,4.36,0,0,1,1.76,3.44,5.12,5.12,0,0,1-1.46,4.08,4.81,4.81,0,0,1-3.18,1.25,7,7,0,0,1-3-.61,7.35,7.35,0,0,0-3-.59,7.58,7.58,0,0,0-3.14.72,8.59,8.59,0,0,0-2.91,2.28,11.93,11.93,0,0,0-2.15,3.82,16.06,16.06,0,0,0-.82,5.38v20.35a5.18,5.18,0,0,1-1.46,3.74,4.9,4.9,0,0,1-3.69,1.5"/><path class="cls-3" d="M1688.08,275a4.91,4.91,0,0,1,3.7,1.5,5.14,5.14,0,0,1,1.46,3.73v21.82q0,9.1-5.07,14.43t-14.6,5.33q-9.54,0-14.56-5.33t-5-14.43V280.24a5.14,5.14,0,0,1,1.46-3.73,5.3,5.3,0,0,1,7.39,0,5.14,5.14,0,0,1,1.46,3.73v21.82q0,5.25,2.32,7.77c1.54,1.7,3.87,2.54,7,2.54s5.5-.84,7-2.54,2.32-4.27,2.32-7.77V280.24a5.14,5.14,0,0,1,1.45-3.73,4.92,4.92,0,0,1,3.69-1.5"/><path class="cls-3" d="M1728.21,274.14a19.63,19.63,0,0,1,10.78,3.05,21.69,21.69,0,0,1,7.56,8.38,28.91,28.91,0,0,1,0,24.78,21.81,21.81,0,0,1-7.48,8.42,18.78,18.78,0,0,1-10.52,3.05,18.48,18.48,0,0,1-6.45-1.11,20.76,20.76,0,0,1-5.28-2.84,16.37,16.37,0,0,1-3.52-3.48,5.53,5.53,0,0,1-1.25-3l2.67-1.11V332.9a5.17,5.17,0,0,1-1.46,3.74,4.9,4.9,0,0,1-3.69,1.5,5,5,0,0,1-3.7-1.45,5.17,5.17,0,0,1-1.46-3.79V280.24a5.14,5.14,0,0,1,1.46-3.73,5.3,5.3,0,0,1,7.39,0,5.14,5.14,0,0,1,1.46,3.73v4.21l-1.46-.78a4.84,4.84,0,0,1,1.2-2.7,17.45,17.45,0,0,1,3.27-3.18,18.91,18.91,0,0,1,4.76-2.62,16.11,16.11,0,0,1,5.72-1m-1.29,9.46a11.73,11.73,0,0,0-6.62,1.88,12.79,12.79,0,0,0-4.43,5.12,16.33,16.33,0,0,0-1.59,7.34,16.7,16.7,0,0,0,1.59,7.34,12.69,12.69,0,0,0,4.43,5.2,11.66,11.66,0,0,0,6.62,1.89,11.45,11.45,0,0,0,6.57-1.89,12.81,12.81,0,0,0,4.38-5.2,16.7,16.7,0,0,0,1.59-7.34,16.33,16.33,0,0,0-1.59-7.34,12.9,12.9,0,0,0-4.38-5.12,11.52,11.52,0,0,0-6.57-1.88"/><path class="cls-3" d="M1758.44,275.86h20.36a4.7,4.7,0,0,1,4.82,4.81,4.5,4.5,0,0,1-1.37,3.31,4.78,4.78,0,0,1-3.45,1.33h-20.36a4.68,4.68,0,0,1-4.8-4.81,4.41,4.41,0,0,1,1.37-3.31,4.75,4.75,0,0,1,3.43-1.33m9.2-10.74a4.8,4.8,0,0,1,3.65,1.5,5.3,5.3,0,0,1,1.42,3.74v38.23a3.72,3.72,0,0,0,.47,2,2.79,2.79,0,0,0,1.28,1.12,4.78,4.78,0,0,0,3.66-.05,4.87,4.87,0,0,1,2-.38,2.87,2.87,0,0,1,2.19,1.11,4.5,4.5,0,0,1,1,3.09,4.55,4.55,0,0,1-2.61,4A11.07,11.07,0,0,1,1775,321a29.64,29.64,0,0,1-4-.3,10.76,10.76,0,0,1-4.12-1.45,9.08,9.08,0,0,1-3.22-3.57,14,14,0,0,1-1.3-6.61V270.36a5.14,5.14,0,0,1,5.25-5.24"/></g></g></svg>