<svg xmlns="http://www.w3.org/2000/svg" viewBox="0 0 682.1 400.15"><defs><style>.cls-1{fill:#100c7a;}.cls-2{fill:#ffb400;}.cls-3{fill:#2962ff;}</style></defs><title>Asset 11jpg</title><g id="Layer_2" data-name="Layer 2"><g id="Layer_1-2" data-name="Layer 1"><path class="cls-1" d="M652.84,390.59a62.37,62.37,0,0,1-86-19.65l-9.61-15.31-110.41-176L394.12,95.46a62.3,62.3,0,0,1,19.7-86c1.32-.78,2.59-1.56,3.91-2.28s2.7-1.32,4-1.92c1.14-.55,2.34-1,3.49-1.45a15.2,15.2,0,0,1,2.16-.72,1,1,0,0,1,.54-.18c1.08-.36,2.16-.66,3.24-1l.72-.18,3.19-.72c.18,0,.36-.06.48-.06a34.88,34.88,0,0,1,3.48-.54,60.35,60.35,0,0,1,7.61-.43c.66,0,1.31,0,2,0a60.86,60.86,0,0,1,6.73.56c1,.14,2,.34,3.06.53,1.26.24,2.51.53,3.77.85a62.35,62.35,0,0,1,7.14,2.28c.33.13.67.24,1,.38A61.62,61.62,0,0,1,499.78,29.2L672.55,304.63a62.31,62.31,0,0,1-19.71,86"/><path class="cls-2" d="M268.23,9.55h0a62.38,62.38,0,0,0-86,19.7L9.54,304.64a62.37,62.37,0,0,0,105.67,66.27L287.92,95.53a62.37,62.37,0,0,0-19.69-86"/><path class="cls-3" d="M509.15,62.42a61.87,61.87,0,0,1-9.55,33.1l-52.74,84.1-110.35,176-9.61,15.31a62.37,62.37,0,0,1-105.66-66.31L393.94,29.26c.66-1.05,1.43-2,2.14-3l.4-.56a62,62,0,0,1,4.45-5.42l.6-.68a61.64,61.64,0,0,1,5.28-5c.16-.13.3-.28.47-.41a59.6,59.6,0,0,1,6.54-4.73c1.32-.78,2.59-1.56,3.91-2.28s2.7-1.32,4-1.92c1.14-.54,2.34-1,3.49-1.45a15.2,15.2,0,0,1,2.16-.72,1,1,0,0,1,.54-.18c1.08-.36,2.16-.66,3.24-1l.72-.18,3.19-.72c.18,0,.36-.06.48-.06a34.88,34.88,0,0,1,3.48-.54,62.42,62.42,0,0,1,70.1,61.93"/><path class="cls-2" d="M483.41,354H410.36a14.39,14.39,0,0,1-12.19-22l36.51-58.24a14.4,14.4,0,0,1,24.39,0L495.61,332a14.4,14.4,0,0,1-12.2,22"/></g></g></svg>